<svg xmlns="http://www.w3.org/2000/svg" viewBox="0 0 32 32" width="32" height="32">
  <defs>
    <linearGradient id="bg" x1="0%" y1="0%" x2="100%" y2="100%">
      <stop offset="0%" style="stop-color:#0d1b2a;stop-opacity:1" />
      <stop offset="100%" style="stop-color:#1b263b;stop-opacity:1" />
    </linearGradient>
  </defs>
  
  <!-- Background circle -->
  <circle cx="16" cy="16" r="16" fill="url(#bg)"/>
  
  <!-- Briefcase icon -->
  <path d="M8 10h16c1.1 0 2 .9 2 2v12c0 1.1-.9 2-2 2H8c-1.1 0-2-.9-2-2V12c0-1.1.9-2 2-2z" fill="#ff6b00"/>
  
  <!-- Briefcase handle -->
  <path d="M12 10V8c0-1.1.9-2 2-2h4c1.1 0 2 .9 2 2v2" fill="none" stroke="#ff6b00" stroke-width="2" stroke-linecap="round"/>
  
  <!-- Briefcase lines -->
  <path d="M12 16h8M12 19h8" fill="none" stroke="#e0e1dd" stroke-width="1.5" stroke-linecap="round"/>
</svg>
